<?xml version="1.0" encoding="utf-8"?>
<!-- Generator: Adobe Illustrator 24.0.0, SVG Export Plug-In . SVG Version: 6.00 Build 0)  -->
<svg version="1.1" id="Layer_1" xmlns="http://www.w3.org/2000/svg" xmlns:xlink="http://www.w3.org/1999/xlink" x="0px" y="0px"
	 viewBox="0 0 109 24" style="enable-background:new 0 0 109 24;" xml:space="preserve">
<style type="text/css">
	.st0{fill:#3540C4;}
</style>
<g>
	<path class="st0" d="M1.21,11.85c0-1.78,0.34-3.39,1.01-4.84c0.67-1.45,1.62-2.68,2.82-3.69c1.21-1.02,2.64-1.8,4.3-2.34
		c1.66-0.54,3.47-0.82,5.43-0.82c1.96,0,3.77,0.27,5.43,0.82c1.66,0.54,3.09,1.32,4.3,2.34c1.21,1.02,2.15,2.25,2.82,3.69
		c0.67,1.44,1.01,3.06,1.01,4.84c0,1.78-0.34,3.39-1.01,4.84c-0.67,1.45-1.62,2.68-2.82,3.69s-2.64,1.8-4.3,2.34
		c-1.66,0.54-3.47,0.82-5.43,0.82c-1.96,0-3.78-0.27-5.43-0.82c-1.66-0.54-3.09-1.33-4.3-2.34c-1.21-1.02-2.15-2.25-2.82-3.69
		C1.54,15.24,1.21,13.63,1.21,11.85z M6.96,11.85c0,1.05,0.18,2.01,0.55,2.88c0.37,0.87,0.89,1.62,1.58,2.26
		c0.69,0.64,1.51,1.14,2.47,1.49c0.96,0.36,2.03,0.53,3.21,0.53c1.18,0,2.25-0.18,3.21-0.53c0.96-0.36,1.78-0.85,2.47-1.49
		c0.69-0.64,1.21-1.39,1.58-2.26c0.37-0.87,0.55-1.83,0.55-2.88c0-1.03-0.18-1.98-0.55-2.86c-0.37-0.88-0.89-1.64-1.58-2.28
		c-0.69-0.64-1.51-1.14-2.47-1.49c-0.96-0.36-2.03-0.53-3.21-0.53c-1.18,0-2.25,0.18-3.21,0.53C10.6,5.58,9.77,6.08,9.09,6.71
		C8.4,7.35,7.88,8.11,7.51,8.99C7.14,9.87,6.96,10.82,6.96,11.85z"/>
	<path class="st0" d="M40.47,13.48L31.03,0.73h6.89l5.33,8.33l5.65-8.33h6.57l-9.44,12.76v9.49h-5.54V13.48z"/>
	<path class="st0" d="M78.07,17.73l5.61,5.25h-6.85l-2.09-2.1c-1.04,0.94-2.16,1.62-3.35,2.04c-1.2,0.42-2.54,0.63-4.03,0.63
		c-1.14,0-2.24-0.14-3.3-0.41c-1.07-0.27-2.02-0.69-2.86-1.24c-0.84-0.55-1.51-1.25-2.01-2.09c-0.5-0.84-0.75-1.81-0.75-2.92
		c0-0.71,0.14-1.39,0.41-2.03c0.27-0.64,0.65-1.22,1.14-1.74s1.05-0.98,1.69-1.37c0.64-0.39,1.34-0.7,2.09-0.93
		c-0.4-0.4-0.78-0.77-1.12-1.13C62.3,9.33,62,8.95,61.75,8.55c-0.25-0.4-0.44-0.82-0.57-1.26c-0.13-0.44-0.2-0.93-0.2-1.48
		c0-1.01,0.22-1.86,0.66-2.58c0.44-0.71,1.02-1.3,1.76-1.76c0.73-0.46,1.57-0.8,2.52-1.01c0.95-0.21,1.92-0.31,2.91-0.31
		c0.97,0,1.89,0.11,2.77,0.33c0.88,0.22,1.65,0.56,2.33,1.01c0.67,0.45,1.21,1.02,1.62,1.7c0.4,0.68,0.6,1.49,0.6,2.43
		c0,0.67-0.12,1.29-0.37,1.85c-0.25,0.57-0.59,1.09-1.01,1.59c-0.43,0.49-0.92,0.93-1.47,1.32c-0.56,0.39-1.15,0.73-1.79,1.02
		l3.23,3.05l2.45-2.95h6.18L78.07,17.73z M67.06,13.48c-0.36,0.19-0.7,0.38-1.05,0.58c-0.34,0.2-0.65,0.42-0.92,0.66
		c-0.27,0.24-0.49,0.52-0.66,0.83c-0.17,0.31-0.25,0.68-0.25,1.1c0,0.42,0.09,0.8,0.28,1.13c0.19,0.34,0.44,0.62,0.75,0.85
		c0.31,0.23,0.67,0.41,1.08,0.55c0.41,0.14,0.83,0.2,1.26,0.2c0.83,0,1.54-0.16,2.15-0.47c0.6-0.31,1.2-0.7,1.79-1.16L67.06,13.48z
		 M68.77,3.93c-0.69,0-1.27,0.19-1.74,0.57c-0.47,0.38-0.71,0.88-0.71,1.51c0,0.27,0.07,0.54,0.21,0.8
		c0.14,0.26,0.31,0.51,0.51,0.75c0.2,0.24,0.43,0.47,0.67,0.68c0.25,0.21,0.48,0.4,0.69,0.57C68.7,8.66,69,8.48,69.33,8.28
		c0.33-0.2,0.64-0.42,0.92-0.66c0.28-0.24,0.52-0.5,0.71-0.79s0.28-0.58,0.28-0.9c0-0.65-0.24-1.15-0.73-1.49
		C70.04,4.11,69.45,3.93,68.77,3.93z"/>
	<path class="st0" d="M93.51,5.06h-7.17V0.73h19.88v4.34h-7.17v17.91h-5.54V5.06z"/>
</g>
</svg>
